<svg width="139" height="30" viewBox="0 0 139 30" fill="none" xmlns="http://www.w3.org/2000/svg">
<g clip-path="url(#clip0)">
<path d="M14.76 30C5.12 30 0 25.13 0 15.91C0 6.16003 6.44 0.340027 16.79 0.340027C19.25 0.340027 22.5 0.840027 23.23 0.840027V6.50003C21.23 4.88003 19.31 2.90003 14.58 2.90003C8.47 2.90003 5.15 8.77003 5.15 14.56C5.15 22.87 9.17 27.44 16.13 27.44C17.15 27.44 17.62 27.33 18.65 27.17C19.01 25.8 19.01 24.38 19.01 23V20.88C19.01 19.57 19.01 18.08 18.7 16.83H16.42C12.89 16.83 11.28 17.54 11.28 17.54V14.87H24.78C23.82 16.22 23.55 17.38 23.55 20.87V25.2C23.55 26.29 23.65 27.62 23.9 29.24C23.92 29.25 20.19 30 14.76 30Z" fill="black"/>
<path d="M35.26 30C29.26 30 26.58 24.64 26.58 19.33C26.58 14.02 29.48 8.66 35.96 8.66C40.48 8.66 42.91 11.68 42.91 14.53C42.91 16.85 41.14 16.85 38.47 16.85H31.01C30.93 17.59 30.87 18.19 30.87 18.95C30.87 22.6 32.44 26.5 36.86 26.5C40.64 26.5 42.35 24.05 42.35 24.05V25.84C41.81 28.02 38.43 30 35.26 30ZM35.44 14.88C37.56 14.88 38.36 14.88 38.36 13.56C38.36 12.12 37.32 10.6 35.4 10.6C33.47 10.6 32.13 12.04 31.4 14.88H35.44Z" fill="black"/>
<path d="M71.4999 30C65.4999 30 62.8199 24.64 62.8199 19.33C62.8199 14.02 65.7199 8.66 72.1999 8.66C76.7099 8.66 79.1499 11.68 79.1499 14.53C79.1499 16.85 77.3799 16.85 74.7099 16.85H67.2499C67.1699 17.59 67.1099 18.19 67.1099 18.95C67.1099 22.6 68.6799 26.5 73.0999 26.5C76.8799 26.5 78.5899 24.05 78.5899 24.05V25.84C78.0499 28.02 74.6699 30 71.4999 30ZM71.6799 14.88C73.7999 14.88 74.5999 14.88 74.5999 13.56C74.5999 12.12 73.5599 10.6 71.6399 10.6C69.7099 10.6 68.3699 12.04 67.6399 14.88H71.6799Z" fill="black"/>
<path d="M60.26 24.3V14.6C60.26 10.65 58.37 8.64999 54.65 8.64999C51.9 8.64999 50.15 10.29 49.05 11.21V9.07999H44.23C45.16 10.45 45.28 11.26 45.28 14.03V24.3C45.28 27.12 45.16 27.92 44.23 29.3H50.19C49.26 27.92 49.14 27.11 49.14 24.3V17.33C49.14 13.45 50.33 11.64 52.88 11.64C55.98 11.64 56.41 14.27 56.41 17.11V29.3H61.32C60.39 27.92 60.26 27.12 60.26 24.3Z" fill="black"/>
<path d="M92.25 23.05C91.21 20.95 89.58 17.96 89.58 17.96C92.16 13.86 93.41 11.95 96.06 9.07999H90.98V10.19C90.98 10.61 90.87 11 90.61 11.53L88.32 15.7L84.85 9.69999C84.59 9.18999 84.22 9.08999 83.74 9.08999C83.26 9.08999 79.5 9.08999 79.5 9.08999C80.36 9.86999 81.17 10.66 82.28 12.61C83.39 14.56 85.95 19.03 85.95 19.03C83.41 23.62 81.47 26.45 78.83 29.31H83.91V28.2C83.91 27.78 84.02 27.39 84.27 26.86L87.35 21.56C87.35 21.56 90.45 27.24 90.9 28.09C91.56 29.31 91.84 29.31 92.43 29.31C92.91 29.31 96.67 29.31 96.67 29.31C95.82 28.52 94.16 26.92 92.25 23.05Z" fill="black"/>
<path d="M107.68 22.44C107.68 24.6 106.56 26.92 104.11 26.92C102.2 26.92 101.1 25.92 101.1 24.17C101.1 21.88 102.77 21.05 105.81 19.53L107.67 18.6V22.44H107.68ZM112.59 29.31C111.66 27.93 111.54 27.13 111.54 24.33V12.48C111.54 9.89999 109.56 8.64999 105.5 8.64999C101.5 8.64999 97.4699 9.96999 97.4699 12.92C97.4699 14.07 98.1899 14.76 99.3999 14.76C100.89 14.76 101.33 13.71 101.71 12.77C102.19 11.61 102.6 10.6 104.64 10.6C106.69 10.6 107.69 11.74 107.69 14.08C107.69 16.5 107.32 16.68 105.26 17.64C105.26 17.64 103.97 18.24 103.49 18.45C100.52 19.77 96.8199 21.41 96.8199 24.86C96.8199 27.98 99.0799 29.99 102.51 29.99C106.06 29.99 107.08 27.92 107.8 26.87C107.8 26.87 107.91 28.2 108.21 29.29H112.59V29.31Z" fill="black"/>
<path d="M132.99 9.08999C131.39 9.08999 130.31 9.48999 129.81 9.71999C129.62 9.80999 129.49 9.99999 129.49 10.22V11.14H136.32C138.19 11.14 138.58 10.88 138.58 10.88V8.92999C138.58 8.92999 138.19 9.08999 136.32 9.08999H132.99Z" fill="black"/>
<path d="M128.56 5.76H129.48V2.26C129.48 0.39 129.22 0 129.22 0H127.27C127.27 0 127.43 0.39 127.43 2.26C127.43 3.86 127.83 4.94 128.06 5.44C128.15 5.63 128.35 5.76 128.56 5.76Z" fill="black"/>
<path d="M128.36 14.47H127.44V17.97C127.44 19.84 127.7 20.23 127.7 20.23H129.65C129.65 20.23 129.49 19.84 129.49 17.97C129.49 16.38 129.09 15.29 128.86 14.79C128.76 14.59 128.57 14.47 128.36 14.47Z" fill="black"/>
<path d="M125.45 6.95998L126.1 6.30998C126.1 6.30998 125.22 5.42998 123.62 3.82998C122.3 2.50998 121.84 2.41998 121.84 2.41998L120.46 3.79998C120.46 3.79998 120.85 3.96998 122.17 5.28998C123.3 6.41998 124.35 6.89998 124.87 7.08998C125.08 7.15998 125.3 7.10998 125.45 6.95998Z" fill="black"/>
<path d="M131.47 13.26L130.82 13.91C130.82 13.91 131.7 14.79 133.29 16.39C134.61 17.71 135.07 17.8 135.07 17.8L136.45 16.42C136.45 16.42 136.07 16.26 134.74 14.93C133.61 13.8 132.56 13.32 132.04 13.13C131.84 13.06 131.62 13.11 131.47 13.26Z" fill="black"/>
<path d="M124.1 10.01V9.09H120.6C118.73 9.09 118.34 9.35 118.34 9.35V11.3C118.34 11.3 118.73 11.14 120.6 11.14C122.19 11.14 123.28 10.74 123.78 10.51C123.98 10.42 124.1 10.22 124.1 10.01Z" fill="black"/>
<path d="M125.31 13.12L124.66 12.47C124.66 12.47 123.78 13.35 122.19 14.94C120.87 16.26 120.78 16.72 120.78 16.72L122.16 18.1C122.16 18.1 122.33 17.71 123.65 16.39C124.78 15.26 125.26 14.21 125.45 13.69C125.51 13.49 125.46 13.27 125.31 13.12Z" fill="black"/>
</g>
<defs>
<clipPath id="clip0">
<rect width="138.57" height="30" fill="white"/>
</clipPath>
</defs>
</svg>
